<?xml version="1.0" encoding="UTF-8"?>
<svg xmlns="http://www.w3.org/2000/svg" viewBox="0 0 48 48"><defs><style>.a{fill:#000;fill-opacity:0;stroke:#000;stroke-linecap:round;stroke-linejoin:round}</style></defs><path d="M16.193 43.07 4.387 36.253l3.876-2.152 9.948 5.447" class="a" style="fill-opacity:1;fill:#585858"/><path d="M47.462 33.718 24.011 47.582.519 34.02V20.619" class="a"/><path d="m6.143 30.566-2.233-1.29v6.701l12.083 6.977V40.72l-1.935-1.116V37.37l-2.333-1.348v-4.465l-5.582-3.225v2.234Z" class="a" style="fill:#919191"/><path d="m37.412 15.519-3.294-2.312-7.48 4.513 5.19 3.107v2.234l7.362 4.259 3.874-2.233 4.398-2.534-6.701-4.715" class="a" style="fill-opacity:1;fill:#ffed00"/><path d="m34.118 13.207-.057-2.257" class="a"/><path d="M8.233 16.14.519 20.619l15.674 9.05 15.635-8.842-7.142-4.28 9.375-5.596-8.397-4.849-5.821 3.599" class="a" style="fill-opacity:1;fill:#0ea900"/><path d="m31.828 23.061-15.635 8.841v2.234l1.733 1.001v2.233l6.085 3.512 13.401-7.898v-2.395l1.866-1.078-.088-2.191" class="a" style="fill-opacity:1;fill:#00c3ff"/><path d="m10.159 17.251.032 4.719 1.932.882 1.935-.882v-2.233l-.028-2.461-1.907 1.11" class="a" style="fill-opacity:1;fill:#7b5400"/><path d="m3.91 13.644 8.213 4.742 7.42-4.284v-9.3L12.123.518 3.91 5.261v8.383Z" class="a" style="fill-rule:nonzero;fill-opacity:1;fill:#00621e"/><path d="m37.412 21.818 1.791 1.034 1.558-.898v-9.368l-1.558-.9-1.791 1.198v8.934Z" class="a" style="fill-opacity:1;fill:#16de00"/><path d="m47.462 25.901-4.468 2.581v1.116l-2.233 1.289v2.233l-2.233 1.29v4.467l8.934-5.159v-7.817Z" class="a" style="fill-opacity:1;fill:#919191"/><path d="M16.193 29.669v2.233" style="fill:none;stroke:#000;stroke-linecap:round;stroke-linejoin:round"/><path d="m16.471 31.526 15.153-8.42.058-1.818-15.153 8.516-.058 1.722Z" style="stroke-width:.5px;stroke:#000;fill:#893e01;paint-order:stroke"/><path d="m1.001 21.549 2.844 1.531 2.018 1.114 9.954 5.836-.026 4.209 1.841 1.09-.19 2.453 6.645 3.591 13.748-8.358.319 6.171-14.029 7.917-7.749-4.317.077-2.008-1.768-1.353-.118-2.284-2.313-1.536-.079-3.982-6.399-3.829-.053 2.16-1.937-1.085-.329 6.334-2.676-1.314.22-12.34" style="stroke:#000;fill:#893e01;stroke-width:.25px"/><path d="m26.978 17.088 6.566-3.799.038-1.469-7.785 4.454 1.181.814Z" style="stroke-width:.5px;stroke:#000;fill:#893e01;paint-order:stroke"/><path d="m39.526 27.743 8.379-5.095-.021 2.904-5.243 3.033-.001.958-2.191 1.372-.017 2.112-2.523 1.37-.134-3.403 1.719-.893.032-2.358Z" style="stroke:#000;stroke-width:.25px;fill:#ffed00"/><path d="M47.122 22.556h.976v4.006h-.976z" style="stroke:#000;stroke-width:0"/><path d="m4.354 30.182 2.118 1.038.084-2.177 4.851 2.846.019 3.369-2.993-1.609-4.245 2.137.166-5.604Z" style="stroke:#000;stroke-width:.25px;fill:#5f5f5f"/></svg>