<svg xmlns="http://www.w3.org/2000/svg" viewBox="0 0 50 50" style="enable-background:new 0 0 50 50" xml:space="preserve">
  <path d="M44 1H6a5 5 0 0 0-5 5v38a5 5 0 0 0 5 5h38a5 5 0 0 0 5-5V6a5 5 0 0 0-5-5zm3 43a3 3 0 0 1-3 3H6a3 3 0 0 1-3-3V6a3 3 0 0 1 3-3h38a3 3 0 0 1 3 3v38z"/>
  <path d="M8 42h8V19H8v23zm2-21h4v19h-4V21zm2-14a5 5 0 1 0 .01 10.01A5 5 0 0 0 12 7zm0 8a3 3 0 1 1 0-6 3 3 0 0 1 0 6zm19 4c-1.36 0-2.7.3-4 .92V19h-8v23h8V31a4 4 0 0 1 8 0v11h8V31c0-6.62-5.38-12-12-12zm10 21h-4v-9a6 6 0 0 0-12 0v9h-4V21h4v2.52l1.56-1.06A7.87 7.87 0 0 1 31 21c5.51 0 10 4.49 10 10v9z"/>
</svg>