<svg xmlns="http://www.w3.org/2000/svg" xml:space="preserve" viewBox="0 0 467 467">
  <path d="m311 171 44 16a9 9 0 0 0 3 0 9 9 0 0 0 8-6l11-30a9 9 0 0 0-5-11l-45-16c-4-2-9 1-11 5l-11 30a9 9 0 0 0 6 12zm19-27 27 10-5 13-27-10 5-13z"/>
  <circle cx="110.1" cy="397.9" r="9.4"/>
  <path d="m307 248 3-2a128 128 0 0 1 41-28l59-25 20-8 14-12c29-29 31-76 3-107a9 9 0 0 0-15 3l-21 58-16-6 22-62a9 9 0 0 0-9-12 78 78 0 0 0-64 55l-37-14a9 9 0 0 0-12 7l-9 46c-4 22-13 42-27 59l-79-79 5-6a9 9 0 0 0 0-13l-5-6c18-22 41-23 58-20a9 9 0 0 0 8-14c-8-10-17-18-29-23-28-13-61-8-85 10l-5-5a9 9 0 0 0-12 0L60 99a9 9 0 0 0 0 13c3 3 2 10-3 15s-12 6-15 3a9 9 0 0 0-13 0L3 156a9 9 0 0 0 0 13l58 58a9 9 0 0 0 12 0l27-26a9 9 0 0 0 0-13c-3-3-2-10 3-15s12-6 15-3a9 9 0 0 0 13 0l5-5 79 79L85 375a34 34 0 0 0 0 48 34 34 0 0 0 48 0l130-131 141 141a9 9 0 0 0 12 0l32-32a9 9 0 0 0 0-12L307 248zm87-178-16 45-17-7a60 60 0 0 1 33-38zM209 55a65 65 0 0 1 5 3c-19 2-35 11-47 26l-22-22c19-13 43-16 64-7zm-88 8 45 46-41 41-45-46 41-41zM67 208l-45-45 14-14 45 45-14 14zm23-48-7 11-24-24a36 36 0 0 0 19-20l25 25-13 8zm59-8 18-19 80 80-19 18-79-79zm-29 258a16 16 0 0 1-11 5 16 16 0 0 1-12-5c-6-6-6-16 0-23l166-166c21-21 35-47 41-76l6-36 103 38c5 2 10-1 11-5l19-50a60 60 0 0 1-22 77l-19 8-58 25a146 146 0 0 0-47 31L120 410zm290 3L276 280l19-19 134 134-19 18z"/>
</svg>
