<svg xmlns="http://www.w3.org/2000/svg" viewBox="0 0 455.86 455.86" style="enable-background:new 0 0 455.861 455.861" xml:space="preserve">
  <path d="m52.62 139.03 102.42 88.9-102.42 88.9a14.78 14.78 0 0 0 19.36 22.31l105.6-91.65 40.67 35.3a14.74 14.74 0 0 0 19.37 0l40.66-35.3 105.6 91.65a14.78 14.78 0 0 0 19.37-22.31l-102.43-88.9 102.43-88.9a14.77 14.77 0 1 0-19.37-22.31L227.93 252.06 71.98 116.72a14.78 14.78 0 0 0-19.36 22.31z"/>
  <path d="M441.09 63.15H14.77A14.78 14.78 0 0 0 0 77.93v300c0 8.16 6.62 14.78 14.77 14.78H441.1c8.16 0 14.77-6.62 14.77-14.78v-300c0-8.16-6.61-14.78-14.77-14.78zm-14.78 300H29.55V92.7H426.3v270.46z"/>
</svg>
