<svg xmlns="http://www.w3.org/2000/svg" viewBox="0 0 512 512"><path d="M363.3 0H148.7C66.7 0 0 66.7 0 148.7v214.5C0 445.3 66.7 512 148.7 512h214.5C445.3 512 512 445.3 512 363.3V148.7C512 66.7 445.3 0 363.3 0zM472 363.3C472 423.2 423.2 472 363.3 472H148.7C88.8 472 40 423.2 40 363.3V148.7C40 88.8 88.8 40 148.7 40h214.5C423.2 40 472 88.8 472 148.7V363.3z"/><path d="M256 118c-76.1 0-138 61.9-138 138s61.9 138 138 138 138-61.9 138-138S332.1 118 256 118zM256 354c-54 0-98-44-98-98s44-98 98-98 98 44 98 98S310 354 256 354z"/><circle cx="396" cy="116" r="20"/></svg>