<svg xmlns="http://www.w3.org/2000/svg" height="512" viewBox="0 0 512 512" width="512"><path d="m160 423h-70v-226h70zm7-298c0-22.6-18.4-41-41-41-22.7 0-41 18.4-41 41 0 22.6 18.3 41 41 41 22.6 0 41-18.4 41-41zm255 173.7c0-60.7-12.8-105.7-83.7-105.7-34.1 0-56.9 17-66.2 34.7h-0.1v-30.7h-68v226h68v-112.2c0-29.4 7.5-57.9 43.9-57.9 35.9 0 37.1 33.6 37.1 59.7v110.3h69zm90 153.3v-392c0-33.1-26.9-60-60-60h-392c-33.1 0-60 26.9-60 60v392c0 33.1 26.9 60 60 60h392c33.1 0 60-26.9 60-60zm-60-412c11 0 20 9 20 20v392c0 11-9 20-20 20h-392c-11 0-20-9-20-20v-392c0-11 9-20 20-20zm0 0"/></svg>