<svg xmlns="http://www.w3.org/2000/svg" fill="none" viewBox="0 0 42 42"><path fill="#4C4F69" d="M20.7569 3.45949c-9.5533 0-17.29741 7.74411-17.29741 17.29741 0 9.5534 7.74411 17.2975 17.29741 17.2975 9.5534 0 17.2975-7.7441 17.2975-17.2975 0-9.5533-7.7441-17.29741-17.2975-17.29741ZM0 20.7569C0 9.29305 9.29305 0 20.7569 0c11.4639 0 20.757 9.29305 20.757 20.7569 0 11.4639-9.2931 20.757-20.757 20.757C9.29305 41.5139 0 32.2208 0 20.7569Z"/><path fill="#4C4F69" d="M16.5026 40.7879c-.1777-.2301-.1777-2.2777 0-6.1436-1.9076.0663-3.1119-.0663-3.6155-.3968-.7549-.4972-1.5099-2.0255-2.1792-3.1036-.6702-1.0781-2.15713-1.2484-2.7574-1.4896-.60028-.2412-.75127-1.2227 1.65444-.4806 2.40576.743 2.52266 2.7666 3.28216 3.2389.7587.4732 2.5733.267 3.3964-.1123.8221-.3793.7614-1.7898.9078-2.3486.1859-.5221-.4677-.6381-.4825-.6418-.8028 0-5.0204-.9179-6.1795-5.002-1.15821-4.085.3342-6.7549 1.1306-7.903.5303-.7641.4833-2.3956-.1409-4.8915 2.2676-.29 4.0178.4235 5.2506 2.1415.0018.0092 1.6158-.9603 4.1679-.9603 2.5521 0 3.4571.7899 4.1559.9603.6988.1703 1.2576-3.0069 5.5728-2.1415-.9013 1.7704-1.6554 3.9828-1.0799 4.8915.5763.9096 2.8356 3.8005 1.4472 7.903-.9252 2.7344-2.7436 4.4018-5.4577 5.002-.3112.0986-.4668.2588-.4668.4797 0 .3315.4208.3683 1.0266 1.9215.4042 1.0348.4327 3.992.0874 8.8706-.8746.2228-1.5559.372-2.0438.4493-.8627.1353-1.799.2118-2.7197.2403-.9207.0295-1.2411.0267-2.5134-.0921-.8224-.0749-1.6388-.2056-2.4435-.3913Z"/></svg>