<svg xmlns="http://www.w3.org/2000/svg" fill="none" viewBox="0 0 42 42"><g clip-path="url(#a)"><path fill="#4C4F69" d="M13.1888 34.4239H7.49221V16.032h5.69659v18.3919Zm.5697-24.2513c0-1.83924-1.4974-3.33664-3.3366-3.33664-1.84733 0-3.33659 1.4974-3.33659 3.33664 0 1.8392 1.48926 3.3366 3.33659 3.3366 1.8392 0 3.3366-1.4974 3.3366-3.3366Zm20.752 14.1358c0-4.9398-1.0416-8.602-6.8115-8.602-2.7751 0-4.6306 1.3835-5.3874 2.8239h-.0081V16.032h-5.5339v18.3919h5.5339v-9.1308c0-2.3926.6103-4.712 3.5726-4.712 2.9215 0 3.0192 2.7344 3.0192 4.8584v8.9763h5.6152V24.3084Zm7.3243 12.4756V4.88283C41.8348 2.18914 39.6456 0 36.952 0H5.0508C2.3571 0 .167969 2.18914.167969 4.88283V36.784c0 2.6937 2.189131 4.8828 4.882831 4.8828H36.952c2.6936 0 4.8828-2.1891 4.8828-4.8828ZM36.952 3.25522c.8951 0 1.6276.73242 1.6276 1.62761V36.784c0 .8952-.7325 1.6276-1.6276 1.6276H5.0508c-.89519 0-1.62761-.7324-1.62761-1.6276V4.88283c0-.89519.73242-1.62761 1.62761-1.62761H36.952Z"/></g><defs><clipPath id="a"><path fill="#fff" d="M0 0h41.6669v41.6669H0z" transform="translate(.167969)"/></clipPath></defs></svg>